<?xml version="1.0" encoding="UTF-8"?>
<svg version="1.1" xmlns="http://www.w3.org/2000/svg" width="1080" height="1080">
<path d="M0 0 C3.44272938 0.01610089 6.88519077 0.00587377 10.32792854 -0.00373077 C84.27454002 -0.16814038 161.29440021 15.90995226 227.99530029 48.41729736 C230.56731292 49.65895863 233.15278686 50.8704346 235.73895264 52.08233643 C244.88584707 56.38427683 253.9502025 60.64897235 262.59051514 65.91046143 C265.20821357 67.49475203 267.87162794 68.94685399 270.57098389 70.38702393 C279.8870824 75.42710024 288.78590559 81.18834944 297.69598389 86.90655518 C299.41563198 87.99511446 301.1700254 89.02969925 302.94598389 90.02374268 C303.66785889 90.49425049 304.38973389 90.9647583 305.13348389 91.44952393 C305.13348389 92.10952393 305.13348389 92.76952393 305.13348389 93.44952393 C305.78317139 93.65577393 306.43285889 93.86202393 307.10223389 94.07452393 C311.35006003 96.0013729 314.88860873 98.6897069 318.63348389 101.44952393 C319.4330249 102.0340332 320.23256592 102.61854248 321.05633545 103.22076416 C323.42140866 104.95570414 325.77907896 106.70014154 328.13348389 108.44952393 C328.75416748 108.90988037 329.37485107 109.37023682 330.01434326 109.84454346 C340.98745883 118.02387097 351.26383502 126.99659235 361.51239014 136.05499268 C363.00943481 137.34281183 364.56946509 138.5564261 366.13348389 139.76202393 C366.79348389 140.31889893 367.45348389 140.87577393 368.13348389 141.44952393 C368.13348389 142.10952393 368.13348389 142.76952393 368.13348389 143.44952393 C368.72771652 143.71876678 369.32194916 143.98800964 369.93418884 144.26541138 C372.13475192 145.45020664 373.56546577 146.63377831 375.32220459 148.39532471 C376.21882561 149.28733078 376.21882561 149.28733078 377.13356018 150.19735718 C377.76904282 150.84002533 378.40452545 151.48269348 379.05926514 152.14483643 C379.72508102 152.81111053 380.39089691 153.47738464 381.07688904 154.16384888 C382.48541571 155.57539453 383.89151321 156.98936773 385.29534912 158.40557861 C387.42259538 160.55093629 389.55758831 162.68832826 391.69403076 164.82452393 C393.06624538 166.20166011 394.43800451 167.57925032 395.80926514 168.95733643 C396.43867508 169.58785919 397.06808502 170.21838196 397.71656799 170.86801147 C404.88565212 178.11242072 411.39046348 185.87557699 417.7946167 193.79718018 C418.76274383 194.9919804 419.73382349 196.18439028 420.70672607 197.37530518 C422.37463473 199.41700495 424.03584468 201.46400402 425.69598389 203.51202393 C426.23312012 204.16759277 426.77025635 204.82316162 427.32366943 205.49859619 C431.13348389 210.22167565 431.13348389 210.22167565 431.13348389 212.44952393 C431.79348389 212.44952393 432.45348389 212.44952393 433.13348389 212.44952393 C434.39862061 213.91485596 434.39862061 213.91485596 435.81317139 215.95733643 C436.33008545 216.6972583 436.84699951 217.43718018 437.37957764 218.19952393 C437.9171167 218.98327393 438.45465576 219.76702393 439.00848389 220.57452393 C439.53828857 221.3350708 440.06809326 222.09561768 440.61395264 222.87921143 C442.13086202 225.06235644 443.63306852 227.25502486 445.13348389 229.44952393 C445.55404053 230.05119385 445.97459717 230.65286377 446.40789795 231.27276611 C449.13348389 235.22306467 449.13348389 235.22306467 449.13348389 237.44952393 C449.79348389 237.44952393 450.45348389 237.44952393 451.13348389 237.44952393 C452.24334717 238.89556885 452.24334717 238.89556885 453.45379639 240.92999268 C453.90279297 241.67571533 454.35178955 242.42143799 454.81439209 243.1897583 C455.29094238 243.99735596 455.76749268 244.80495361 456.25848389 245.63702393 C457.25436152 247.29730983 458.25045667 248.95746528 459.24676514 250.61749268 C459.73741455 251.44039795 460.22806396 252.26330322 460.73358154 253.11114502 C462.60830119 256.24265265 464.52464657 259.34639693 466.44598389 262.44952393 C473.97759279 274.69030582 481.05245346 286.93400552 487.09954834 299.98126221 C489.20066909 304.50744523 491.40291321 308.955125 493.69598389 313.38702393 C497.111466 320.14796687 499.82722957 327.10371642 502.50457764 334.18389893 C503.8603034 337.76852976 505.31280615 341.30083038 506.82098389 344.82452393 C508.85167277 349.63159728 510.55474673 354.49489601 512.14129639 359.46514893 C512.87855658 361.68273471 513.67917831 363.87945973 514.51239014 366.06280518 C521.29499877 384.01004487 526.00927179 402.74042284 530.13348389 421.44952393 C530.39403564 422.63014404 530.6545874 423.81076416 530.92303467 425.02716064 C534.28838659 440.43457548 537.25369379 455.79123042 539.13348389 471.44952393 C539.32187332 472.99148941 539.32187332 472.99148941 539.5140686 474.56460571 C542.00886424 495.56700023 542.60864969 516.34949092 542.52459717 537.48468018 C542.50745249 541.83963296 542.51771714 546.19403768 542.53491879 550.54897213 C542.60142995 570.40525073 541.95599709 589.75841181 539.13348389 609.44952393 C538.92629011 610.98989848 538.72013339 612.53041311 538.51531982 614.07110596 C538.00067492 617.85141584 537.42256909 621.61946912 536.82098389 625.38702393 C536.66665894 626.36463684 536.66665894 626.36463684 536.50921631 627.36199951 C533.66064105 645.31577485 529.77409916 663.04747224 525.44598389 680.69952393 C525.25584717 681.47908447 525.06571045 682.25864502 524.86981201 683.06182861 C523.79969856 687.29194608 522.47755011 691.31163028 520.89886475 695.3772583 C519.48232762 699.21252693 518.39816735 703.1500454 517.25848389 707.07452393 C513.97027524 718.18488489 510.38806601 728.99318203 505.43817139 739.49249268 C503.89787988 742.98351265 502.61271601 746.54935741 501.32098389 750.13702393 C498.76449517 757.15759283 495.62835502 763.73288611 492.20770264 770.36749268 C490.03642676 774.58845298 488.05507848 778.88830383 486.07098389 783.19952393 C483.32970694 789.10981845 480.36591688 794.77908811 476.96942139 800.34796143 C475.36558636 803.0574189 473.86010436 805.79117355 472.36785889 808.56280518 C469.10214737 814.5805664 465.58635282 820.42586567 462.00848389 826.26202393 C461.40133545 827.25911377 460.79418701 828.25620361 460.16864014 829.2835083 C458.50166061 832.0127787 456.82194941 834.73350652 455.13348389 837.44952393 C454.72130615 838.12031982 454.30912842 838.79111572 453.88446045 839.48223877 C453.02330371 840.8416874 452.08809053 842.15398633 451.13348389 843.44952393 C450.47348389 843.44952393 449.81348389 843.44952393 449.13348389 843.44952393 C448.88598389 844.33639893 448.63848389 845.22327393 448.38348389 846.13702393 C447.08815559 849.5696439 445.50951476 851.69026227 443.13348389 854.44952393 C442.80348389 855.10952393 442.47348389 855.76952393 442.13348389 856.44952393 C441.47348389 856.44952393 440.81348389 856.44952393 440.13348389 856.44952393 C439.89500732 857.15206299 439.65653076 857.85460205 439.41082764 858.57843018 C437.90793824 861.95648432 435.98502707 864.48268593 433.69598389 867.38702393 C433.25641357 867.94696045 432.81684326 868.50689697 432.36395264 869.08380127 C431.43147627 870.27079891 430.49668918 871.45598447 429.55975342 872.63946533 C428.15323531 874.42445767 426.76423814 876.2217602 425.37957764 878.02374268 C420.19783132 884.73966161 414.83577024 891.15181797 409.03192139 897.34014893 C407.09569808 899.30348805 407.09569808 899.30348805 406.13348389 901.44952393 C405.47348389 901.44952393 404.81348389 901.44952393 404.13348389 901.44952393 C403.86535889 902.08889893 403.59723389 902.72827393 403.32098389 903.38702393 C402.13348389 905.44952393 402.13348389 905.44952393 399.13348389 906.44952393 C398.73226318 907.27565186 398.73226318 907.27565186 398.32293701 908.11846924 C396.56103115 911.57139969 393.82525472 914.04258391 391.10223389 916.74639893 C390.21465393 917.63684906 390.21465393 917.63684906 389.30914307 918.54528809 C388.06082808 919.7949611 386.80999566 921.04212384 385.55682373 922.28692627 C383.63340392 924.19960345 381.7209229 926.12275512 379.80926514 928.04718018 C378.59506249 929.2600619 377.38023996 930.47232345 376.16473389 931.68389893 C375.59073853 932.26194275 375.01674316 932.83998657 374.425354 933.43554688 C370.36341822 937.44952393 370.36341822 937.44952393 368.13348389 937.44952393 C367.87438232 938.04378174 367.61528076 938.63803955 367.34832764 939.25030518 C366.03666528 941.62479363 364.76299448 942.8966096 362.69598389 944.63702393 C361.97926514 945.24417236 361.26254639 945.8513208 360.52410889 946.47686768 C357.07749691 949.32088573 353.62133936 952.15244827 350.14910889 954.96514893 C347.96583708 956.7638029 345.81501645 958.57943001 343.68035889 960.43389893 C343.10052246 960.93502197 342.52068604 961.43614502 341.92327881 961.95245361 C340.79342106 962.9317169 339.66835646 963.91654497 338.54876709 964.90753174 C335.85556848 967.23456271 333.74255979 969.03208864 330.13348389 969.44952393 C330.13348389 970.10952393 330.13348389 970.76952393 330.13348389 971.44952393 C328.78069606 972.40595354 327.41787158 973.35015117 326.01824951 974.2366333 C323.92779037 975.5818925 321.91629484 977.01241321 319.89910889 978.46514893 C319.16047607 978.99366455 318.42184326 979.52218018 317.66082764 980.06671143 C316.12487658 981.16795935 314.5910649 982.27219647 313.05926514 983.37921143 C312.32578857 983.9025708 311.59231201 984.42593018 310.83660889 984.96514893 C310.17306396 985.44242432 309.50951904 985.91969971 308.8258667 986.41143799 C307.13348389 987.44952393 307.13348389 987.44952393 305.13348389 987.44952393 C305.13348389 988.10952393 305.13348389 988.76952393 305.13348389 989.44952393 C303.68743896 990.55938721 303.68743896 990.55938721 301.65301514 991.76983643 C300.90729248 992.21883301 300.16156982 992.66782959 299.39324951 993.13043213 C298.58565186 993.60698242 297.7780542 994.08353271 296.94598389 994.57452393 C295.28569798 995.57040155 293.62554254 996.56649671 291.96551514 997.56280518 C291.14260986 998.05345459 290.31970459 998.544104 289.47186279 999.04962158 C286.34035516 1000.92434123 283.23661088 1002.84068661 280.13348389 1004.76202393 C267.89119308 1012.29456125 255.64580077 1019.36919599 242.59735107 1025.41778564 C238.11661405 1027.49805724 233.70906022 1029.67786648 229.32098389 1031.94952393 C221.29361904 1035.99538937 212.97598598 1039.23728428 204.60028076 1042.48516846 C202.3374721 1043.36977794 200.08577164 1044.27698247 197.83660889 1045.19561768 C137.56411887 1069.60836678 72.40852955 1081.1118985 7.57928467 1080.84063721 C3.45891042 1080.82354655 -0.66088213 1080.83373765 -4.78123665 1080.85095215 C-32.08503423 1080.94766089 -59.05515055 1079.4558907 -85.99151611 1074.69952393 C-86.7239151 1074.57391083 -87.45631409 1074.44829773 -88.21090698 1074.31887817 C-103.58600093 1071.67736389 -118.75369676 1068.32803509 -133.86651611 1064.44952393 C-134.93869385 1064.17527588 -136.01087158 1063.90102783 -137.11553955 1063.61846924 C-166.6864069 1055.94379762 -196.28851547 1045.85798254 -223.78106689 1032.45098877 C-226.1915653 1031.2934303 -228.61977991 1030.17811462 -231.05010986 1029.06280518 C-244.60912156 1022.78797573 -257.46566777 1015.65702643 -270.28009033 1007.98565674 C-273.65415929 1005.98172603 -277.06876414 1004.05604191 -280.49151611 1002.13702393 C-285.3112389 999.38883224 -290.05032778 996.53535591 -294.74151611 993.57452393 C-295.35591553 993.19255859 -295.97031494 992.81059326 -296.60333252 992.41705322 C-298.06117462 991.48293259 -299.46973444 990.47269834 -300.86651611 989.44952393 C-300.86651611 988.78952393 -300.86651611 988.12952393 -300.86651611 987.44952393 C-301.55616455 987.21362549 -302.24581299 986.97772705 -302.95635986 986.73468018 C-306.44277709 985.19504089 -309.37430528 983.13040016 -312.42901611 980.88702393 C-313.04542969 980.43939697 -313.66184326 979.99177002 -314.29693604 979.53057861 C-316.1575655 978.17573972 -318.01216076 976.8129311 -319.86651611 975.44952393 C-320.85135986 974.73409424 -321.83620361 974.01866455 -322.85089111 973.28155518 C-334.83687163 964.457622 -346.37810439 954.96536778 -357.27667236 944.82843018 C-359.34643444 942.92724601 -361.44316724 941.0842354 -363.57110596 939.24981689 C-367.59529987 935.73253928 -371.41094143 932.05032961 -375.18292236 928.26593018 C-375.84307846 927.6067308 -376.50323456 926.94753143 -377.18339539 926.26835632 C-378.56687117 924.88555558 -379.94910695 923.50151317 -381.33013916 922.11627197 C-383.42383281 920.0172205 -385.52281486 917.92356453 -387.62237549 915.8303833 C-388.97621182 914.47588607 -390.32973787 913.12107861 -391.68292236 911.76593018 C-392.29978409 911.15109268 -392.91664581 910.53625519 -393.55220032 909.90278625 C-399.43146442 903.99233823 -404.87929272 897.74669619 -410.11651611 891.26202393 C-412.95796174 887.75709354 -415.84849135 884.31064261 -418.80987549 880.90655518 C-425.2733471 873.43806444 -430.93875091 865.50489381 -436.53448486 857.37335205 C-438.89661146 853.96177625 -441.33169451 850.60143106 -443.75714111 847.23468018 C-444.86651611 845.44952393 -444.86651611 845.44952393 -444.86651611 843.44952393 C-445.52651611 843.44952393 -446.18651611 843.44952393 -446.86651611 843.44952393 C-447.96051025 842.03521729 -447.96051025 842.03521729 -449.15167236 840.03936768 C-449.595271 839.30444092 -450.03886963 838.56951416 -450.49591064 837.81231689 C-450.96883545 837.01197021 -451.44176025 836.21162354 -451.92901611 835.38702393 C-452.41998779 834.56863037 -452.91095947 833.75023682 -453.41680908 832.90704346 C-454.42498592 831.22522564 -455.43018182 829.5416174 -456.43243408 827.85626221 C-457.70342987 825.72322229 -458.98594757 823.59800405 -460.27667236 821.47686768 C-465.29539455 813.21543017 -470.11921017 804.85307599 -474.79327393 796.39190674 C-475.48515763 795.13971685 -476.17962661 793.88895025 -476.8772583 792.63995361 C-485.20097534 777.70695678 -492.24177143 762.06479569 -498.41729736 746.12921143 C-499.23170136 744.06137162 -500.06049895 741.99861983 -500.93878174 739.95709229 C-504.69220799 731.2097891 -507.75757956 722.29280692 -510.74151611 713.26202393 C-511.00386047 712.47028778 -511.26620483 711.67855164 -511.53649902 710.86282349 C-519.2103871 687.65308806 -525.24310622 664.46547297 -529.86651611 640.44952393 C-530.15437988 639.00972168 -530.15437988 639.00972168 -530.44805908 637.54083252 C-536.68340555 606.28510029 -538.53841951 574.74922046 -538.31604004 542.95294189 C-538.29993006 539.68253513 -538.31017299 536.41241014 -538.31977081 533.14199448 C-538.4934585 458.80563118 -522.56207968 381.59226392 -489.87677002 314.54815674 C-488.69662289 312.09659928 -487.55307169 309.62928154 -486.40948486 307.16046143 C-480.20714335 293.85392747 -473.37251544 281.06429162 -465.86651611 268.44952393 C-465.36934082 267.61348633 -464.87216553 266.77744873 -464.35992432 265.91607666 C-461.19456306 260.61682094 -457.96564661 255.36179222 -454.67901611 250.13702393 C-453.83092905 248.78703405 -452.98326245 247.43677994 -452.13604736 246.08624268 C-451.74368896 245.46410889 -451.35133057 244.8419751 -450.94708252 244.20098877 C-449.98863359 242.64746129 -449.08535892 241.06019307 -448.19073486 239.46905518 C-447.75374268 238.80260986 -447.31675049 238.13616455 -446.86651611 237.44952393 C-446.20651611 237.44952393 -445.54651611 237.44952393 -444.86651611 237.44952393 C-444.59847168 236.71435547 -444.33042725 235.97918701 -444.05426025 235.22174072 C-442.89627725 232.51898698 -441.60329447 230.45278777 -439.86260986 228.09405518 C-439.28704346 227.30708252 -438.71147705 226.52010986 -438.11846924 225.70928955 C-437.51969971 224.90169189 -436.92093018 224.09409424 -436.30401611 223.26202393 C-435.11402917 221.64440531 -433.92517042 220.02595594 -432.73760986 218.40655518 C-432.21094727 217.69475098 -431.68428467 216.98294678 -431.1416626 216.24957275 C-429.81551029 214.4742607 -429.81551029 214.4742607 -428.86651611 212.44952393 C-428.20651611 212.44952393 -427.54651611 212.44952393 -426.86651611 212.44952393 C-426.54360596 211.41698486 -426.54360596 211.41698486 -426.21417236 210.36358643 C-424.47164061 206.59567719 -422.05235631 203.9026309 -419.30401611 200.82452393 C-418.21443395 199.58064292 -417.12590248 198.33584082 -416.03839111 197.09014893 C-415.50020752 196.47591064 -414.96202393 195.86167236 -414.40753174 195.2288208 C-412.23545583 192.72088524 -410.14226485 190.15243098 -408.05401611 187.57452393 C-405.37096192 184.28168469 -402.68213764 180.99665847 -399.92901611 177.76202393 C-399.38374268 177.11878174 -398.83846924 176.47553955 -398.27667236 175.81280518 C-396.86651611 174.44952393 -396.86651611 174.44952393 -394.86651611 174.44952393 C-394.55134033 173.64321533 -394.55134033 173.64321533 -394.22979736 172.82061768 C-392.34710816 169.54614104 -389.74438247 167.11780803 -387.05401611 164.51202393 C-386.53259033 163.99962158 -386.01116455 163.48721924 -385.47393799 162.95928955 C-384.43489293 161.93840508 -383.39413152 160.91926444 -382.35162354 159.9019165 C-379.2807538 156.89869375 -376.25751426 153.85107375 -373.26104736 150.77374268 C-372.40897705 149.90362549 -371.55690674 149.0335083 -370.67901611 148.13702393 C-369.81921143 147.25401611 -368.95940674 146.3710083 -368.07354736 145.46124268 C-365.86651611 143.44952393 -365.86651611 143.44952393 -363.86651611 143.44952393 C-363.60483643 142.85268799 -363.34315674 142.25585205 -363.07354736 141.64093018 C-361.78784464 139.30669319 -360.58754516 138.08961462 -358.55401611 136.38702393 C-357.83858643 135.78245361 -357.12315674 135.1778833 -356.38604736 134.55499268 C-355.55460205 133.86018799 -354.72315674 133.1653833 -353.86651611 132.44952393 C-352.9010083 131.62065674 -351.93550049 130.79178955 -350.94073486 129.93780518 C-337.45774005 118.36926981 -323.39516602 107.6727147 -308.86651611 97.44952393 C-307.97899658 96.82279785 -307.97899658 96.82279785 -307.07354736 96.18341064 C-303.1100714 93.44952393 -303.1100714 93.44952393 -300.86651611 93.44952393 C-300.86651611 92.78952393 -300.86651611 92.12952393 -300.86651611 91.44952393 C-299.42047119 90.33966064 -299.42047119 90.33966064 -297.38604736 89.12921143 C-296.64032471 88.68021484 -295.89460205 88.23121826 -295.12628174 87.76861572 C-294.31868408 87.29206543 -293.51108643 86.81551514 -292.67901611 86.32452393 C-291.01873021 85.3286463 -289.35857476 84.33255115 -287.69854736 83.33624268 C-286.87564209 82.84559326 -286.05273682 82.35494385 -285.20489502 81.84942627 C-282.07338739 79.97470662 -278.96964311 78.05836124 -275.86651611 76.13702393 C-263.62573422 68.60541502 -251.38203452 61.53055435 -238.33477783 55.48345947 C-233.80859481 53.38233872 -229.36091504 51.1800946 -224.92901611 48.88702393 C-218.28114058 45.52866103 -211.45121238 42.84107989 -204.48370361 40.22296143 C-201.07547442 38.93988969 -197.73246737 37.54195418 -194.38604736 36.10577393 C-186.62194598 32.85274787 -178.66737772 30.21402531 -170.67901611 27.57452393 C-169.88727997 27.31217957 -169.09554382 27.04983521 -168.27981567 26.77954102 C-145.08016217 19.10898635 -121.8899856 12.99848854 -97.86651611 8.44952393 C-96.86362549 8.25761475 -95.86073486 8.06570557 -94.82745361 7.86798096 C-63.30139244 1.93536897 -32.016452 -0.21263515 0 0 Z " fill="#19A2DA" transform="translate(537.8665161132813,-0.44952392578125)"/>
<path d="M0 0 C8.35931065 2.23696458 16.22733529 5.45203668 24.1875 8.8125 C26.14126648 9.63073102 28.09577638 10.44716709 30.050354 11.26345825 C31.32219094 11.7947061 32.59380117 12.32649704 33.86517334 12.8588562 C38.26823276 14.70124134 42.68648527 16.49501225 47.125 18.25 C56.5694747 21.99711177 65.91060053 25.99205161 75.26367188 29.96044922 C84.91499661 34.05398603 94.59589588 38.06374042 104.3125 42 C115.73124563 46.62713914 127.08903059 51.39096558 138.4375 56.1875 C150.5642251 61.3123226 162.7122408 66.35577911 174.95849609 71.18945312 C186.61893412 75.81904584 198.15319204 80.75681852 209.69921875 85.66235352 C218.95067528 89.58152184 228.25119659 93.37262727 237.56445312 97.14208984 C244.82969189 100.09106007 252.03364826 103.14048893 259.1796875 106.3671875 C262.40478444 107.78550744 265.68347942 109.03738835 268.9765625 110.2890625 C277.23334492 113.43928801 285.35389278 116.89397811 293.48876953 120.34326172 C301.33623197 123.66727916 309.19578676 126.90004635 317.17626953 129.89672852 C319.95972767 130.98426503 322.66534783 132.1784697 325.375 133.4375 C330.21199637 135.68449831 335.1313922 137.67284737 340.09228516 139.62426758 C344.86325615 141.51375508 349.56118156 143.54083302 354.25 145.625 C359.52252403 147.96637953 364.80801669 150.07833288 370.2590332 151.97729492 C372.94463371 152.97934182 375.50640285 154.11648093 378.1015625 155.33203125 C383.8412471 157.9665142 389.66989935 160.29489747 395.5625 162.5625 C407.07521331 167.0212699 418.45191084 171.58456707 429.67578125 176.73242188 C433.59866518 178.51748611 437.50781809 180.22858815 441.5546875 181.71484375 C445 183 445 183 446 184 C446.13154921 186.43366041 446.12481763 188.53612732 445.48950195 190.8972168 C444.96378423 193.15557427 444.94768888 195.01855603 445.04296875 197.33203125 C445.75063052 222.56804916 441.51102811 247.44160839 436 272 C435.84728638 272.68070557 435.69457275 273.36141113 435.53723145 274.06274414 C434.33659311 279.40069722 433.11165453 284.73278628 431.875 290.0625 C431.7049646 290.80005524 431.5349292 291.53761047 431.35974121 292.29751587 C429.64088488 299.72142622 427.82811319 306.90666175 425 314 C423.98537503 317.19194219 423.05902895 320.40868891 422.125 323.625 C418.83679136 334.73536096 415.25458212 345.54365811 410.3046875 356.04296875 C408.76439599 359.53398872 407.47923212 363.09983348 406.1875 366.6875 C403.63101129 373.70806891 400.49487113 380.28336218 397.07421875 386.91796875 C394.90294288 391.13892905 392.9215946 395.4387799 390.9375 399.75 C388.19622305 405.66029452 385.23243299 411.32956418 381.8359375 416.8984375 C380.23210247 419.60789497 378.72662048 422.34164963 377.234375 425.11328125 C373.96866348 431.13104248 370.45286894 436.97634174 366.875 442.8125 C366.26785156 443.80958984 365.66070313 444.80667969 365.03515625 445.83398438 C363.36817672 448.56325478 361.68846553 451.2839826 360 454 C359.58782227 454.6707959 359.17564453 455.3415918 358.75097656 456.03271484 C357.88981983 457.39216348 356.95460665 458.70446241 356 460 C355.34 460 354.68 460 354 460 C353.7525 460.886875 353.505 461.77375 353.25 462.6875 C351.95467171 466.12011998 350.37603087 468.24073834 348 471 C347.67 471.66 347.34 472.32 347 473 C346.34 473 345.68 473 345 473 C344.76152344 473.70253906 344.52304687 474.40507813 344.27734375 475.12890625 C342.77445435 478.5069604 340.85154319 481.033162 338.5625 483.9375 C338.12292969 484.49743652 337.68335938 485.05737305 337.23046875 485.63427734 C336.29799238 486.82127498 335.36320529 488.00646054 334.42626953 489.18994141 C333.01975143 490.97493374 331.63075425 492.77223627 330.24609375 494.57421875 C325.06434744 501.29013769 319.70228635 507.70229405 313.8984375 513.890625 C311.96221419 515.85396412 311.96221419 515.85396412 311 518 C310.34 518 309.68 518 309 518 C308.67 518.99 308.34 519.98 308 521 C307.21689453 520.68361572 307.21689453 520.68361572 306.41796875 520.36083984 C291.41109002 514.3061819 276.36057485 508.50122376 261.07788086 503.18139648 C256.94701542 501.72980532 252.90101059 500.16447505 248.875 498.4375 C244.48443097 496.55496835 240.04223917 494.97022099 235.5 493.5 C229.94404063 491.7016605 224.58780452 489.61988175 219.22265625 487.31640625 C214.65638825 485.45115496 210.00810293 483.85046847 205.3503418 482.23071289 C199.95631199 480.35078358 194.62030742 478.34977453 189.296875 476.27734375 C185.60325296 474.84628403 181.89740929 473.45064634 178.1875 472.0625 C177.5071167 471.80750732 176.8267334 471.55251465 176.12573242 471.28979492 C172.88940522 470.07774891 169.65130523 468.87099432 166.41015625 467.671875 C157.5820985 464.39315131 148.81994328 460.9630524 140.0625 457.5 C131.8357878 454.24923959 123.6074079 451.0777675 115.24072266 448.20703125 C108.32191779 445.81238927 101.52254226 443.11993687 94.7175293 440.42138672 C81.61934098 435.23475325 68.38707204 430.39681134 55.1809082 425.49365234 C37.55896781 418.95031184 19.95486359 412.36249225 2.38012695 405.69335938 C1.67448105 405.42558685 0.96883514 405.15781433 0.24180603 404.88192749 C-1.14541567 404.35542777 -2.53257291 403.82875815 -3.91966248 403.3019104 C-7.98764614 401.75816962 -12.06065776 400.22860517 -16.13734436 398.70800781 C-25.39900364 395.2516966 -34.59204355 391.63316444 -43.7734375 387.96875 C-50.227065 385.41328676 -56.69046639 383.0312042 -63.30297852 380.91796875 C-66.16079511 379.94527115 -68.91413984 378.81581136 -71.6875 377.625 C-76.17468924 375.71421481 -80.70204311 374.02140865 -85.3125 372.4375 C-93.53583336 369.59629481 -101.64331338 366.46765012 -109.75 363.3125 C-112.44915625 362.26286006 -115.14838655 361.21341066 -117.84765625 360.1640625 C-118.52421265 359.90101318 -119.20076904 359.63796387 -119.89782715 359.36694336 C-136.00570721 353.10890186 -152.13248989 346.90864572 -168.47827148 341.29541016 C-174.77041563 339.12182131 -180.90678986 336.68745244 -187 334 C-187 333.67 -187 333.34 -187 333 C-186.1945575 332.99191315 -185.38911499 332.98382629 -184.55926514 332.97549438 C-176.96683763 332.8975372 -169.374602 332.81024324 -161.78240585 332.71247292 C-157.87922466 332.66253781 -153.97607016 332.61620763 -150.07275391 332.578125 C-146.30547664 332.54123683 -142.53842424 332.49486748 -138.77133942 332.44193649 C-137.33448483 332.42341127 -135.89758207 332.40829637 -134.46065521 332.39665604 C-132.44730677 332.37976235 -130.43408299 332.34959317 -128.42089844 332.31884766 C-127.27506287 332.30552399 -126.12922729 332.29220032 -124.94866943 332.2784729 C-122.06439409 332.00608139 -120.39298889 331.59575477 -118 330 C-116.69374031 327.77876997 -116.69374031 327.77876997 -115.7734375 325.06640625 C-115.38631592 324.03805664 -114.99919434 323.00970703 -114.6003418 321.95019531 C-114.195979 320.83225586 -113.79161621 319.71431641 -113.375 318.5625 C-112.94550049 317.40975586 -112.51600098 316.25701172 -112.07348633 315.06933594 C-111.1656281 312.62747621 -110.26418101 310.18322478 -109.36865234 307.73681641 C-108.02675833 304.07305799 -106.66680521 300.41654094 -105.30078125 296.76171875 C-101.49660837 286.56704227 -97.71314166 276.36567036 -94.1328125 266.08984375 C-93.18515055 263.50501408 -92.18261139 260.9608803 -91.1484375 258.41015625 C-88.76805724 252.49790198 -86.63273923 246.50515312 -84.5 240.5 C-83.74137699 238.36394546 -82.9809807 236.22851983 -82.21875 234.09375 C-81.88810547 233.16240234 -81.55746094 232.23105469 -81.21679688 231.27148438 C-80.21664625 228.58247589 -79.17303585 225.92340012 -78.10058594 223.26293945 C-76.02795224 218.10909865 -74.08541408 212.91388162 -72.171875 207.69921875 C-71.81917542 206.7421553 -71.46647583 205.78509186 -71.10308838 204.79902649 C-69.98408412 201.76233075 -68.86684246 198.72499141 -67.75 195.6875 C-63.16393104 183.21741208 -58.54836855 170.76172391 -53.80062866 158.35217285 C-50.92266069 150.82192113 -48.13259964 143.26264273 -45.375 135.6875 C-41.6376616 125.43729984 -37.84323946 115.21079849 -34 105 C-31.66531037 98.79217637 -29.33184941 92.58389107 -27 86.375 C-26.6800708 85.52315125 -26.3601416 84.67130249 -26.03051758 83.79364014 C-20.56734948 69.24035611 -15.17020715 54.66355911 -9.83203125 40.06396484 C-9.56374512 39.33227081 -9.29545898 38.60057678 -9.01904297 37.84671021 C-8.49052033 36.40526467 -7.96347274 34.96327733 -7.43798828 33.52072144 C-6.03080343 29.68621923 -4.55912437 25.88939617 -3.00390625 22.11230469 C-2.67491333 21.30320648 -2.34592041 20.49410828 -2.00695801 19.66049194 C-1.3739518 18.11185211 -0.72902926 16.56800945 -0.07019043 15.03018188 C2.23559038 9.36276657 1.94816106 5.84448319 0 0 Z " fill="#107EA8" transform="translate(633,383)"/>
<path d="M0 0 C3.20281085 1.05745087 6.13666575 2.53176205 9.13531494 4.06645203 C10.02137539 4.50394785 10.90743583 4.94144368 11.82034659 5.39219695 C14.77896808 6.85792546 17.72564052 8.34619423 20.67285156 9.8347168 C22.79492617 10.8919701 24.91768588 11.94784925 27.04107666 13.00245667 C32.80023366 15.8680751 38.54914376 18.75370916 44.2961092 21.64368415 C49.70059566 24.36005942 55.11308943 27.06041347 60.52458355 29.76279161 C71.24614523 35.1176981 81.95962134 40.48858759 92.66894531 45.86791992 C103.05666893 51.08570846 113.45103305 56.28996471 123.85253906 61.48022461 C135.18571661 67.13540083 146.51505193 72.79814537 157.83789039 78.47399837 C159.04548664 79.0793223 160.25308508 79.68464188 161.46068573 80.28995705 C162.0548108 80.58777739 162.64893587 80.88559774 163.26106472 81.19244295 C167.44506885 83.28918468 171.6317233 85.38055709 175.81928253 87.47019005 C181.45547985 90.2835201 187.08559203 93.10867224 192.71120453 95.9431057 C194.77796187 96.98205361 196.84677522 98.01692297 198.91775513 99.04742813 C201.74174607 100.45347751 204.55793726 101.8740594 207.37261963 103.29862976 C208.19595614 103.70428797 209.01929265 104.10994618 209.86757874 104.52789706 C214.23048126 106.75809136 217.37421518 108.69333139 220 113 C220.39075141 115.93284739 220.56211522 118.4792753 220.53125 121.40625 C220.5350769 122.20857056 220.53890381 123.01089111 220.54284668 123.83752441 C220.54556052 125.52857727 220.53823624 127.21967248 220.52148438 128.91064453 C220.50006499 131.49216716 220.52130161 134.0709072 220.546875 136.65234375 C220.54423163 138.29948528 220.53910645 139.94662509 220.53125 141.59375 C220.53934692 142.36158813 220.54744385 143.12942627 220.55578613 143.92053223 C220.49436961 147.44835225 220.13716013 149.76470607 218.34912109 152.83203125 C215.65896622 155.31473498 213.23388179 156.62116744 209.8828125 158.09375 C209.28192307 158.36210159 208.68103363 158.63045319 208.06193542 158.90693665 C206.08842315 159.78430342 204.10707517 160.6421754 202.125 161.5 C200.73543626 162.11307842 199.3463644 162.7272728 197.95776367 163.3425293 C193.64659436 165.24709804 189.32404523 167.12489286 185 169 C183.64233757 169.59047873 182.28475117 170.18113227 180.92724609 170.77197266 C175.90663152 172.95582569 170.88520477 175.13750035 165.85400391 177.296875 C158.10142199 180.6271395 150.4004036 184.05912873 142.71063232 187.53149414 C134.68021531 191.15382307 126.61656396 194.69750896 118.54492188 198.22680664 C102.83859375 205.09600817 87.16030675 212.02658097 71.5 219 C54.71581258 226.4734296 37.90829535 233.89187955 21.08007812 241.265625 C20.2655719 241.62253418 19.45106567 241.97944336 18.61187744 242.34716797 C17.11538626 243.00274175 15.61877593 243.65804367 14.12200928 244.31298828 C13.10690277 244.75747314 13.10690277 244.75747314 12.07128906 245.2109375 C11.41229614 245.4987207 10.75330322 245.78650391 10.07434082 246.08300781 C8.57858597 246.74422775 7.08786649 247.41687986 5.60046387 248.09667969 C4.40556335 248.64050293 4.40556335 248.64050293 3.18652344 249.1953125 C2.46350037 249.52805176 1.74047729 249.86079102 0.99554443 250.20361328 C-1.87973415 251.35108644 -3.95661148 251.55334337 -7 251 C-10.33761045 248.84909549 -11.73470933 247.79587201 -13 244 C-13.10805553 242.17102148 -13.15880017 240.33842492 -13.17700195 238.50634766 C-13.18983719 237.38152985 -13.20267242 236.25671204 -13.21589661 235.09780884 C-13.22328354 233.88217255 -13.23067047 232.66653625 -13.23828125 231.4140625 C-13.246353 230.16499115 -13.25442474 228.9159198 -13.26274109 227.6289978 C-13.27658008 224.98439831 -13.28759744 222.3399234 -13.29516602 219.6953125 C-13.30623319 216.31352896 -13.34064314 212.93240292 -13.38033772 209.55085182 C-13.41281584 206.31782075 -13.41728312 203.08473184 -13.42578125 199.8515625 C-13.44328934 198.63997467 -13.46079742 197.42838684 -13.47883606 196.18008423 C-13.47591049 195.0489621 -13.47298492 193.91783997 -13.4699707 192.75244141 C-13.47583694 191.7599942 -13.48170319 190.767547 -13.48774719 189.74502563 C-12.85737097 186.19728838 -11.49245552 184.56171635 -9 182 C-7.21144104 180.85427856 -7.21144104 180.85427856 -5.36938477 180.10986328 C-4.31550064 179.67163239 -4.31550064 179.67163239 -3.24032593 179.22454834 C-2.48168243 178.92615051 -1.72303894 178.62775269 -0.94140625 178.3203125 C-0.13796783 177.99097717 0.66547058 177.66164185 1.49325562 177.32232666 C4.13601425 176.24289848 6.78650626 175.18402299 9.4375 174.125 C11.29504505 173.37060729 13.1520536 172.6148923 15.00854492 171.85791016 C19.75787415 169.92513912 24.51364544 168.00881939 29.27160645 166.09741211 C33.41095068 164.43248863 37.54544159 162.75565968 41.6796875 161.078125 C46.23057429 159.23213115 50.78172736 157.3868428 55.33544922 155.54785156 C68.65408491 150.16549212 81.91851096 144.65598595 95.17106628 139.1131897 C96.53967177 138.54086614 97.90849075 137.9690528 99.27754211 137.39779663 C102.3853293 136.09997146 105.48686425 134.79091719 108.58154297 133.46191406 C109.65678223 133.00268555 110.73202148 132.54345703 111.83984375 132.0703125 C112.77046631 131.66828613 113.70108887 131.26625977 114.65991211 130.85205078 C117 130 117 130 120 130 C120 129.34 120 128.68 120 128 C119.15155518 127.73533936 118.30311035 127.47067871 117.42895508 127.19799805 C113.86241809 125.95193204 110.54619402 124.45863169 107.13671875 122.83203125 C106.48009247 122.52042053 105.82346619 122.20880981 105.14694214 121.88775635 C103.73136549 121.21591448 102.31644782 120.54268269 100.90213013 119.86819458 C97.09764631 118.05463082 93.28751432 116.25304998 89.4765625 114.453125 C88.69271683 114.08288712 87.90887115 113.71264923 87.10127258 113.33119202 C78.95823459 109.49411333 70.76499533 105.7703486 62.5625 102.0625 C53.36088299 97.90011054 44.17385662 93.71724346 35.06298828 89.35864258 C30.38423246 87.12232559 25.69012118 84.92111113 20.984375 82.7421875 C20.3636763 82.45471649 19.7429776 82.16724548 19.10346985 81.87106323 C16.02533642 80.44612688 12.94619242 79.02343899 9.8659668 77.60302734 C7.61860975 76.56367067 5.37394089 75.51847682 3.13232422 74.46679688 C1.1101039 73.51983665 -0.91915876 72.58770682 -2.95654297 71.67382812 C-3.84615723 71.26068359 -4.73577148 70.84753906 -5.65234375 70.421875 C-6.81044556 69.8973877 -6.81044556 69.8973877 -7.99194336 69.36230469 C-10.62466214 67.57621705 -11.56976032 65.83664178 -13 63 C-13.39440918 60.23046875 -13.39440918 60.23046875 -13.41992188 57.1875 C-13.43583374 56.0428125 -13.45174561 54.898125 -13.46813965 53.71875 C-13.46834106 52.4915625 -13.46854248 51.264375 -13.46875 50 C-13.47636353 48.7315625 -13.48397705 47.463125 -13.49182129 46.15625 C-13.50261979 43.47624317 -13.50684711 40.79711931 -13.50097656 38.1171875 C-13.49507525 34.69035533 -13.5256987 31.26493745 -13.56609344 27.83837891 C-13.59821642 24.55894588 -13.59385415 21.27956609 -13.59375 18 C-13.61014526 16.7728125 -13.62654053 15.545625 -13.64343262 14.28125 C-13.57559187 5.93595764 -13.57559187 5.93595764 -10.96289062 1.6875 C-7.21572103 -0.44668229 -4.17889678 -0.57276158 0 0 Z " fill="#F8B52D" transform="translate(661,421)"/>
<path d="M0 0 C2.95849609 1.67382812 2.95849609 1.67382812 5 5 C5.73389006 9.40791909 5.70020334 13.75857485 5.6640625 18.21875 C5.66884613 19.50938354 5.67362976 20.80001709 5.67855835 22.12976074 C5.6859143 24.8568323 5.67526785 27.5830828 5.65185547 30.31005859 C5.62336557 33.79752706 5.63977683 37.28307172 5.66971779 40.77046967 C5.692179 44.10754877 5.67643132 47.44411631 5.6640625 50.78125 C5.67418365 52.03031128 5.68430481 53.27937256 5.69473267 54.56628418 C5.57827968 63.17204811 5.57827968 63.17204811 2.80541992 67.14208984 C0.06336544 68.95803577 -2.57489137 70.54385696 -5.55078125 71.9453125 C-6.62900146 72.45900391 -7.70722168 72.97269531 -8.81811523 73.50195312 C-9.97126221 74.03755859 -11.12440918 74.57316406 -12.3125 75.125 C-13.52909973 75.69908101 -14.74532154 76.27396353 -15.96118164 76.84960938 C-19.63319033 78.58301148 -23.31530144 80.29373048 -27 82 C-28.04317383 82.48307617 -29.08634766 82.96615234 -30.16113281 83.46386719 C-35.05261311 85.72233903 -39.95181096 87.96341911 -44.85546875 90.1953125 C-51.50213462 93.22267704 -58.12704463 96.29617614 -64.75 99.375 C-65.9145874 99.91608398 -67.0791748 100.45716797 -68.27905273 101.01464844 C-73.67810995 103.523834 -79.07614852 106.03519731 -84.47303772 108.54904175 C-87.48163398 109.95020232 -90.49077203 111.35019674 -93.5 112.75 C-94.6557251 113.2877002 -95.8114502 113.82540039 -97.00219727 114.37939453 C-105.04624506 118.11374176 -113.11702581 121.78399393 -121.2265625 125.37402344 C-124.86826786 126.78659614 -124.86826786 126.78659614 -128 129 C-115.61227747 134.238709 -103.19831011 139.40706695 -90.75 144.5 C-89.06433427 145.19041957 -87.37870695 145.88093295 -85.69311523 146.5715332 C-83.08055288 147.64188666 -80.46795599 148.71215515 -77.85520935 149.78205872 C-71.8772753 152.23006915 -65.90105468 154.68222206 -59.92578125 157.13671875 C-59.10565048 157.47343094 -58.28551971 157.81014313 -57.4405365 158.15705872 C-53.36426636 159.83066228 -49.28873234 161.50601394 -45.21459961 163.18481445 C-37.35702156 166.41880332 -29.48615761 169.61001337 -21.578125 172.71875 C-19.36074397 173.59655195 -17.14378806 174.47541857 -14.92697144 175.35464478 C-12.87013429 176.16479881 -10.80758353 176.95890531 -8.74438477 177.75268555 C-7.50244602 178.24447032 -6.2608096 178.73701951 -5.01953125 179.23046875 C-3.94807861 179.64707764 -2.87662598 180.06368652 -1.77270508 180.49291992 C1.49951309 182.27150606 2.92872301 183.91480288 5 187 C5.50793457 189.76953125 5.50793457 189.76953125 5.51757812 192.8125 C5.53018677 193.9571875 5.54279541 195.101875 5.55578613 196.28125 C5.54768921 197.5084375 5.53959229 198.735625 5.53125 200 C5.5350769 201.2684375 5.53890381 202.536875 5.54284668 203.84375 C5.54556715 206.52399486 5.54021686 209.20277705 5.52148438 211.8828125 C5.49869395 215.30951508 5.51182313 218.73496444 5.53577423 222.16162109 C5.55374422 225.44112502 5.54114439 228.72047969 5.53125 232 C5.53934692 233.2271875 5.54744385 234.454375 5.55578613 235.71875 C5.53687317 237.43578125 5.53687317 237.43578125 5.51757812 239.1875 C5.51439575 240.19167969 5.51121338 241.19585938 5.50793457 242.23046875 C4.86317428 245.7460471 3.43924661 247.43653579 1 250 C-2.30510533 251.65255266 -5.40610921 251.51394214 -8.91616821 250.38214111 C-11.15614347 249.46877632 -13.35300459 248.48730319 -15.55078125 247.4765625 C-16.80153694 246.91779922 -16.80153694 246.91779922 -18.07756042 246.3477478 C-20.82716938 245.11686759 -23.56962897 243.87081325 -26.3125 242.625 C-28.24944658 241.75527686 -30.1869559 240.88680599 -32.125 240.01953125 C-36.1263234 238.22828495 -40.12554359 236.43245844 -44.12353516 234.63378906 C-52.05843106 231.07017513 -60.02562546 227.58102835 -67.99517822 224.09579468 C-72.21833776 222.24827172 -76.43931262 220.3957753 -80.66015625 218.54296875 C-81.50273987 218.1731337 -82.34532349 217.80329865 -83.21343994 217.42225647 C-93.12848057 213.06824141 -103.03331958 208.69114972 -112.9375 204.3125 C-113.8417572 203.91273956 -114.7460144 203.51297913 -115.67767334 203.10110474 C-119.25634036 201.51895595 -122.8349585 199.93669668 -126.41351318 198.35429382 C-133.96775221 195.01392456 -141.52284283 191.67549177 -149.07943726 188.3404541 C-150.43680308 187.74128449 -151.79408338 187.14192108 -153.15127563 186.5423584 C-160.7271707 183.19558386 -168.30855039 179.86193882 -175.90090942 176.55265808 C-179.5771722 174.95011827 -183.25215773 173.34465892 -186.92718506 171.73928833 C-188.69036983 170.97018618 -190.45421841 170.20260356 -192.21881104 169.43673706 C-200.88850516 165.67379883 -209.52424363 161.85120243 -218.0234375 157.71484375 C-218.68695221 157.39979385 -219.35046692 157.08474396 -220.03408813 156.76014709 C-223.58279633 154.99823436 -226.27064775 153.63214077 -228 150 C-228.32877504 147.08559805 -228.49165705 144.38913023 -228.50390625 141.47265625 C-228.51389145 140.6467247 -228.52387665 139.82079315 -228.53416443 138.96983337 C-228.54932824 137.22578939 -228.55639076 135.48165867 -228.5559082 133.73754883 C-228.56247112 131.07422151 -228.61696612 128.41462108 -228.67382812 125.75195312 C-228.68263079 124.05470021 -228.68858461 122.35742964 -228.69140625 120.66015625 C-228.7129628 119.86730728 -228.73451935 119.07445831 -228.75672913 118.25758362 C-228.69031794 112.87914727 -228.69031794 112.87914727 -226.77227783 110.43644714 C-224.00250449 108.04879191 -220.88267108 106.19725284 -217.6015625 104.60546875 C-216.80073242 104.21149902 -215.99990234 103.8175293 -215.17480469 103.41162109 C-214.33336914 103.00766113 -213.49193359 102.60370117 -212.625 102.1875 C-210.83068447 101.308685 -209.03641418 100.42977763 -207.2421875 99.55078125 C-206.35499023 99.11975098 -205.46779297 98.6887207 -204.55371094 98.24462891 C-200.93838997 96.48259198 -197.34430847 94.67937333 -193.75 92.875 C-191.16699728 91.58267199 -188.58347303 90.2913875 -186 89 C-184.82727539 88.4136377 -183.65455078 87.82727539 -182.44628906 87.22314453 C-166.70898438 79.35449219 -150.97167969 71.48583984 -135.234375 63.6171875 C-134.42359497 63.21161621 -133.61281494 62.80604492 -132.77746582 62.38818359 C-130.74898453 61.37434413 -128.71983965 60.36183206 -126.69030762 59.35009766 C-117.59429897 54.81314603 -108.5202529 50.23355029 -99.45131683 45.64274597 C-90.18643448 40.95366184 -80.91393195 36.27978332 -71.63834381 31.61192322 C-65.425406 28.48474784 -59.21567448 25.35147881 -53.01269531 22.20458984 C-46.9715234 19.13981864 -40.92208381 16.0919156 -34.86729431 13.05413818 C-32.57119097 11.89871199 -30.2779052 10.73766849 -27.98756409 9.57086182 C-24.79392103 7.94501569 -21.59083118 6.33945868 -18.38476562 4.73828125 C-17.44748627 4.25526047 -16.51020691 3.77223969 -15.54452515 3.27458191 C-10.04787173 0.56060968 -6.14205099 -0.6961447 0 0 Z " fill="#F8B52D" transform="translate(421,421)"/>
<path d="M0 0 C1.26496307 -0.00960754 2.52992615 -0.01921509 3.83322144 -0.02911377 C5.21579813 -0.03396169 6.59837693 -0.03824053 7.98095703 -0.04199219 C9.39958701 -0.04774609 10.81821697 -0.0535038 12.23684692 -0.05926514 C15.21096152 -0.06976608 18.18504916 -0.07561471 21.15917969 -0.07910156 C24.96456243 -0.08458541 28.7695872 -0.10861451 32.57485771 -0.13707352 C35.50543246 -0.15572433 38.43592137 -0.16090678 41.36655045 -0.16243744 C42.76914553 -0.16545884 44.1717393 -0.17347011 45.57427597 -0.18662262 C47.53902828 -0.20373273 49.50392866 -0.19995088 51.46875 -0.1953125 C52.58555145 -0.19895813 53.70235291 -0.20260376 54.85299683 -0.20635986 C58.24946836 0.20821092 60.1154527 1.16109443 62.86376953 3.16113281 C64.69634758 5.57680388 64.91021371 6.70954462 64.59912109 9.734375 C63.67451486 14.04306459 62.24522017 18.04729253 60.72314453 22.17675781 C60.40469574 23.05265564 60.08624695 23.92855347 59.75814819 24.83099365 C58.71551058 27.69307811 57.66490774 30.55216048 56.61376953 33.41113281 C55.88557244 35.40325827 55.15754674 37.39544639 54.4296875 39.38769531 C49.79474447 52.04514271 45.04479582 64.65523278 40.19009399 77.2298584 C35.98840977 88.11417817 31.97260223 99.05062295 28.10839844 110.05957031 C26.1353174 115.67097505 24.07810251 121.22281014 21.84008789 126.73388672 C20.12671191 130.99354764 18.53171006 135.29738384 16.92626953 139.59863281 C16.54567383 140.61594482 16.16507813 141.63325684 15.77294922 142.68139648 C9.26850833 160.08450961 2.81086058 177.50521975 -3.64305115 194.92712402 C-5.01506135 198.63039261 -6.38802533 202.33330718 -7.76123047 206.03613281 C-8.02922455 206.75903503 -8.29721863 207.48193726 -8.57333374 208.22674561 C-11.4400593 215.95647484 -14.32307579 223.6794081 -17.25732422 231.38378906 C-17.50764404 232.04133179 -17.75796387 232.69887451 -18.01586914 233.37634277 C-19.18483293 236.44472905 -20.35742153 239.51162384 -21.53515625 242.57666016 C-23.53340824 247.80398833 -25.45245031 253.03393636 -27.19482422 258.35253906 C-28.67972316 262.884272 -30.34049826 267.29874245 -32.14453125 271.71191406 C-33.87833573 275.99392455 -35.46301872 280.33168702 -37.07373047 284.66113281 C-37.85865093 286.74846108 -38.6438233 288.83569462 -39.42919922 290.92285156 C-41.16891932 295.55532392 -42.88329904 300.19606213 -44.58082581 304.84414673 C-45.72062995 307.95465358 -46.87478115 311.05972965 -48.03128052 314.1640625 C-48.59914832 315.69810624 -49.16094989 317.23440983 -49.71652222 318.77294922 C-50.50225812 320.94625001 -51.30899207 323.11066764 -52.12060547 325.27441406 C-52.35060745 325.92650345 -52.58060944 326.57859283 -52.81758118 327.2504425 C-54.46754805 331.56065613 -56.00509562 333.19903008 -60.13623047 335.16113281 C-63.20947266 335.55554199 -63.20947266 335.55554199 -66.68310547 335.58105469 C-67.98795898 335.59696655 -69.2928125 335.61287842 -70.63720703 335.62927246 C-72.05354762 335.63053963 -73.46988955 335.63071664 -74.88623047 335.62988281 C-76.34684541 335.63698821 -77.80745757 335.64468776 -79.26806641 335.6529541 C-82.32446053 335.66637956 -85.38059641 335.66797603 -88.43701172 335.66210938 C-92.34804753 335.65620823 -96.2578441 335.68682875 -100.16864014 335.72722626 C-103.18333579 335.75310898 -106.19773298 335.75598038 -109.21252441 335.75233459 C-110.65420655 335.75402467 -112.09590263 335.76365656 -113.53747559 335.78147888 C-115.55464745 335.80367834 -117.57211275 335.79075293 -119.58935547 335.77636719 C-120.7356543 335.77842163 -121.88195312 335.78047607 -123.06298828 335.78259277 C-127.11246848 334.96372148 -128.60465552 333.36326512 -131.13623047 330.16113281 C-132.73528006 321.24689086 -128.45115221 312.95648793 -125.26123047 304.78613281 C-124.65942932 303.21185113 -124.05918777 301.63697245 -123.46044922 300.06152344 C-122.256306 296.8972149 -121.04538258 293.735646 -119.82861328 290.57617188 C-117.54113126 284.62539183 -115.33709795 278.64438179 -113.13623047 272.66113281 C-112.3438293 270.51899569 -111.55084634 268.3770737 -110.75732422 266.23535156 C-110.34595215 265.12466309 -109.93458008 264.01397461 -109.51074219 262.86962891 C-106.74335097 255.40307961 -103.97109186 247.93833779 -101.19873047 240.47363281 C-100.91715088 239.7153418 -100.63557129 238.95705078 -100.34545898 238.17578125 C-99.53758159 236.000271 -98.72951703 233.82483037 -97.92138672 231.64941406 C-97.68428482 231.01091019 -97.44718292 230.37240631 -97.20289612 229.71455383 C-92.7278789 217.67112534 -92.7278789 217.67112534 -90.47998047 211.84082031 C-85.86333806 199.81862939 -81.39281391 187.74621486 -76.99365234 175.64306641 C-74.79610875 169.61421591 -72.54286014 163.6240124 -70.13330078 157.67700195 C-68.10820385 152.5671528 -66.26413737 147.38893339 -64.38623047 142.22363281 C-53.9822857 113.71361226 -43.35619682 85.28294496 -32.6652832 56.87939453 C-32.36177444 56.07301544 -32.05826569 55.26663635 -31.74555969 54.43582153 C-31.13485749 52.81329897 -30.52408913 51.1908013 -29.91325378 49.56832886 C-27.99282537 44.46045638 -26.09246062 39.34552463 -24.20452881 34.22555542 C-22.93100581 30.77593745 -21.64903777 27.329492 -20.36578369 23.88348389 C-19.7605691 22.25184146 -19.15920696 20.61876421 -18.56195068 18.98419189 C-17.7386028 16.73203998 -16.90188283 14.48529025 -16.06201172 12.23925781 C-15.82409409 11.57769684 -15.58617645 10.91613586 -15.34104919 10.23452759 C-13.88248277 6.38375535 -12.35249531 3.76046706 -9.13623047 1.16113281 C-5.86709903 0.07142233 -3.44139395 0.02107033 0 0 Z " fill="#F6ECE6" transform="translate(571.13623046875,380.8388671875)"/>
<path d="M0 0 C2.01210972 0.67070324 4.02400172 1.34206298 6.03515625 2.015625 C8.22745881 2.74350411 10.42333908 3.46062753 12.62109375 4.171875 C23.83792753 7.81902258 23.83792753 7.81902258 28.375 9.9375 C32.30730134 11.76967724 36.34058273 13.21202089 40.4375 14.625 C48.02635621 17.24633826 55.51536151 20.09533614 63 23 C71.14036773 26.15731947 79.29603997 29.21955009 87.54345703 32.08496094 C101.32040954 36.88027302 101.32040954 36.88027302 106 40 C103.31722306 47.25124886 100.63360502 54.50218606 97.94946289 61.75292969 C97.0407508 64.20793992 96.1322156 66.66301564 95.22387695 69.11816406 C89.18971985 85.4274188 83.12134272 101.72326326 77 118 C73.87033813 126.32424373 70.75471177 134.65253591 67.6875 143 C64.96567691 150.40647731 62.21003515 157.7998599 59.4375 165.1875 C59.04957275 166.22116699 58.66164551 167.25483398 58.26196289 168.31982422 C56.67100225 172.55675023 55.07881735 176.79319891 53.48046875 181.02734375 C50.48724979 188.97188169 47.55221931 196.9367022 44.63418579 204.90917969 C40.37761494 216.53797687 36.10773384 228.16181008 31.80740356 239.77450562 C31.23031954 241.33379658 30.65403773 242.89338469 30.07858276 244.45327759 C29.27205 246.63894938 28.46258032 248.82351148 27.65234375 251.0078125 C27.41322266 251.65752518 27.17410156 252.30723785 26.92773438 252.97663879 C25.77337037 256.07878542 24.55949732 259.07816745 23 262 C12.21215547 258.27641107 1.55795046 254.33383119 -9 250 C-9 249.67 -9 249.34 -9 249 C-7.906875 248.7525 -6.81375 248.505 -5.6875 248.25 C-1.7581576 246.91801952 -0.97215608 246.47400911 1 243 C1.45227452 240.28654731 1.45227452 240.28654731 1.38818359 237.28515625 C1.40236832 235.56317017 1.40236832 235.56317017 1.4168396 233.80639648 C1.41076691 232.57091064 1.40469421 231.3354248 1.3984375 230.0625 C1.40130768 228.79027588 1.40417786 227.51805176 1.40713501 226.20727539 C1.40917677 223.51710391 1.40514781 220.82774996 1.39111328 218.13769531 C1.37402115 214.69424103 1.38386564 211.25148825 1.40183067 207.80805969 C1.41529406 204.51784815 1.40586034 201.2277207 1.3984375 197.9375 C1.40754654 196.08427124 1.40754654 196.08427124 1.4168396 194.19360352 C1.40738312 193.04561279 1.39792664 191.89762207 1.38818359 190.71484375 C1.38460342 189.20071899 1.38460342 189.20071899 1.38095093 187.65600586 C0.94093768 184.58821505 0.10084096 183.24213811 -2 181 C-4.1398573 179.74862728 -4.1398573 179.74862728 -6.65234375 178.8359375 C-7.63299805 178.44575439 -8.61365234 178.05557129 -9.62402344 177.65356445 C-10.7174707 177.23163818 -11.81091797 176.80971191 -12.9375 176.375 C-14.74668623 175.65748243 -16.55584033 174.93988178 -18.36422729 174.22035217 C-19.69659203 173.69083962 -21.02956236 173.16284889 -22.36306763 172.63621521 C-30.75206797 169.32114962 -39.09305536 165.88894454 -47.43829346 162.46557617 C-51.21716351 160.91586785 -54.99726328 159.3691712 -58.77734375 157.82241821 C-62.58206448 156.26550225 -66.38645034 154.70776882 -70.19085693 153.15008545 C-72.95609025 152.017977 -75.72144061 150.88615489 -78.48681641 149.75439453 C-82.85688764 147.96577246 -87.2265166 146.17607385 -91.5958252 144.3855896 C-93.20189957 143.72758553 -94.8080946 143.06987585 -96.41442871 142.4125061 C-100.84060069 140.60095522 -105.26370647 138.78223092 -109.68341064 136.95495605 C-111.32301098 136.2790718 -112.96388791 135.60628054 -114.60565186 134.93566895 C-117.25924637 133.85137613 -119.90915395 132.75846165 -122.55859375 131.6640625 C-123.38722427 131.32772797 -124.2158548 130.99139343 -125.06959534 130.64486694 C-130.88626453 128.22747094 -130.88626453 128.22747094 -132 126 C-120.296875 120.56640625 -108.59375 115.1328125 -96.890625 109.69921875 C-95.18314087 108.90644531 -95.18314087 108.90644531 -93.44116211 108.09765625 C-91.12168998 107.02077611 -88.80219071 105.94395443 -86.48266602 104.8671875 C-80.78339292 102.22139241 -75.08452869 99.57472598 -69.38671875 96.92578125 C-67.15364995 95.88801197 -64.92057699 94.85025164 -62.6875 93.8125 C-61.57463623 93.29494141 -60.46177246 92.77738281 -59.31518555 92.24414062 C-53.05818822 89.33735002 -46.79529709 86.44400061 -40.5243988 83.56730652 C-36.99354147 81.94751228 -33.46379717 80.32529876 -29.93399048 78.70321655 C-28.20491832 77.90960381 -26.4752551 77.11727739 -24.7449646 76.32632446 C-10.13331989 71.09986521 -10.13331989 71.09986521 1 62 C1.09616831 60.1368286 1.12795992 58.2701921 1.12939453 56.40454102 C1.13412277 54.64745567 1.13412277 54.64745567 1.13894653 52.85487366 C1.1369223 51.58405441 1.13489807 50.31323517 1.1328125 49.00390625 C1.13376923 47.70428452 1.13472595 46.40466278 1.13571167 45.06565857 C1.13718711 42.31255915 1.13503937 39.55949214 1.13037109 36.80639648 C1.12467949 33.27780603 1.12795015 29.74929173 1.13394356 26.22070408 C1.13842743 22.85676537 1.13528707 19.49284712 1.1328125 16.12890625 C1.13584885 14.22571373 1.13584885 14.22571373 1.13894653 12.28407288 C1.13579437 11.10953049 1.13264221 9.9349881 1.12939453 8.72485352 C1.12859894 7.6894191 1.12780334 6.65398468 1.12698364 5.58717346 C1.11068278 2.88314789 1.11068278 2.88314789 0 0 Z " fill="#10678A" transform="translate(424,423)"/>
<path d="M0 0 C3.20281085 1.05745087 6.13666575 2.53176205 9.13531494 4.06645203 C10.02137539 4.50394785 10.90743583 4.94144368 11.82034659 5.39219695 C14.77896808 6.85792546 17.72564052 8.34619423 20.67285156 9.8347168 C22.79492617 10.8919701 24.91768588 11.94784925 27.04107666 13.00245667 C32.80023366 15.8680751 38.54914376 18.75370916 44.2961092 21.64368415 C49.70059566 24.36005942 55.11308943 27.06041347 60.52458355 29.76279161 C71.24614523 35.1176981 81.95962134 40.48858759 92.66894531 45.86791992 C103.05666893 51.08570846 113.45103305 56.28996471 123.85253906 61.48022461 C135.18571661 67.13540083 146.51505193 72.79814537 157.83789039 78.47399837 C159.04548664 79.0793223 160.25308508 79.68464188 161.46068573 80.28995705 C162.0548108 80.58777739 162.64893587 80.88559774 163.26106472 81.19244295 C167.44506885 83.28918468 171.6317233 85.38055709 175.81928253 87.47019005 C181.45547985 90.2835201 187.08559203 93.10867224 192.71120453 95.9431057 C194.77796187 96.98205361 196.84677522 98.01692297 198.91775513 99.04742813 C201.74174607 100.45347751 204.55793726 101.8740594 207.37261963 103.29862976 C208.19595614 103.70428797 209.01929265 104.10994618 209.86757874 104.52789706 C211.00074482 105.10714001 211.00074482 105.10714001 212.15680313 105.69808483 C212.8071044 106.02426459 213.45740567 106.35044436 214.12741303 106.68650836 C216 108 216 108 220 113 C220 117.95 220 122.9 220 128 C187.66 128 155.32 128 122 128 C122 128.66 122 129.32 122 130 C121.34 130 120.68 130 120 130 C120 129.34 120 128.68 120 128 C119.15155518 127.73533936 118.30311035 127.47067871 117.42895508 127.19799805 C113.86241809 125.95193204 110.54619402 124.45863169 107.13671875 122.83203125 C106.48009247 122.52042053 105.82346619 122.20880981 105.14694214 121.88775635 C103.73136549 121.21591448 102.31644782 120.54268269 100.90213013 119.86819458 C97.09764631 118.05463082 93.28751432 116.25304998 89.4765625 114.453125 C88.69271683 114.08288712 87.90887115 113.71264923 87.10127258 113.33119202 C78.95823459 109.49411333 70.76499533 105.7703486 62.5625 102.0625 C53.36088299 97.90011054 44.17385662 93.71724346 35.06298828 89.35864258 C30.38423246 87.12232559 25.69012118 84.92111113 20.984375 82.7421875 C20.3636763 82.45471649 19.7429776 82.16724548 19.10346985 81.87106323 C16.02533642 80.44612688 12.94619242 79.02343899 9.8659668 77.60302734 C7.61860975 76.56367067 5.37394089 75.51847682 3.13232422 74.46679688 C1.1101039 73.51983665 -0.91915876 72.58770682 -2.95654297 71.67382812 C-3.84615723 71.26068359 -4.73577148 70.84753906 -5.65234375 70.421875 C-6.81044556 69.8973877 -6.81044556 69.8973877 -7.99194336 69.36230469 C-10.62466214 67.57621705 -11.56976032 65.83664178 -13 63 C-13.39440918 60.23046875 -13.39440918 60.23046875 -13.41992188 57.1875 C-13.43583374 56.0428125 -13.45174561 54.898125 -13.46813965 53.71875 C-13.46834106 52.4915625 -13.46854248 51.264375 -13.46875 50 C-13.47636353 48.7315625 -13.48397705 47.463125 -13.49182129 46.15625 C-13.50261979 43.47624317 -13.50684711 40.79711931 -13.50097656 38.1171875 C-13.49507525 34.69035533 -13.5256987 31.26493745 -13.56609344 27.83837891 C-13.59821642 24.55894588 -13.59385415 21.27956609 -13.59375 18 C-13.61014526 16.7728125 -13.62654053 15.545625 -13.64343262 14.28125 C-13.57559187 5.93595764 -13.57559187 5.93595764 -10.96289062 1.6875 C-7.21572103 -0.44668229 -4.17889678 -0.57276158 0 0 Z " fill="#FDCE55" transform="translate(661,421)"/>
<path d="M0 0 C2.95849609 1.67382812 2.95849609 1.67382812 5 5 C5.73389006 9.40791909 5.70020334 13.75857485 5.6640625 18.21875 C5.66884613 19.50938354 5.67362976 20.80001709 5.67855835 22.12976074 C5.6859143 24.8568323 5.67526785 27.5830828 5.65185547 30.31005859 C5.62336557 33.79752706 5.63977683 37.28307172 5.66971779 40.77046967 C5.692179 44.10754877 5.67643132 47.44411631 5.6640625 50.78125 C5.67418365 52.03031128 5.68430481 53.27937256 5.69473267 54.56628418 C5.57827968 63.17204811 5.57827968 63.17204811 2.80541992 67.14208984 C0.06336544 68.95803577 -2.57489137 70.54385696 -5.55078125 71.9453125 C-6.62900146 72.45900391 -7.70722168 72.97269531 -8.81811523 73.50195312 C-9.97126221 74.03755859 -11.12440918 74.57316406 -12.3125 75.125 C-13.52909973 75.69908101 -14.74532154 76.27396353 -15.96118164 76.84960938 C-19.63319033 78.58301148 -23.31530144 80.29373048 -27 82 C-28.04317383 82.48307617 -29.08634766 82.96615234 -30.16113281 83.46386719 C-35.05261311 85.72233903 -39.95181096 87.96341911 -44.85546875 90.1953125 C-51.50213462 93.22267704 -58.12704463 96.29617614 -64.75 99.375 C-65.9145874 99.91608398 -67.0791748 100.45716797 -68.27905273 101.01464844 C-73.67743697 103.52352124 -79.07482547 106.03452277 -84.4710083 108.54812622 C-86.29851243 109.39920006 -88.12626657 110.24973467 -89.95410156 111.10009766 C-92.2065608 112.14816427 -94.45856724 113.19720501 -96.70996094 114.24755859 C-98.83196833 115.23465186 -100.96005156 116.20879251 -103.09411621 117.16954041 C-105.86227658 118.43595771 -108.54209785 119.81431324 -111.22235107 121.25675964 C-124.66726796 128.23416436 -136.08795091 129.21569447 -151.046875 128.87890625 C-153.28270879 128.86206804 -155.51857635 128.84928162 -157.75445557 128.84031677 C-163.56829599 128.80636243 -169.38003137 128.71832152 -175.1930542 128.61798096 C-181.15315288 128.52501581 -187.11360015 128.48461924 -193.07421875 128.43945312 C-204.71705809 128.34365546 -216.35835234 128.19056411 -228 128 C-228.16276553 125.43493576 -228.28113984 122.88024578 -228.375 120.3125 C-228.42527344 119.59126953 -228.47554687 118.87003906 -228.52734375 118.12695312 C-228.67240671 112.83215511 -228.67240671 112.83215511 -226.71726036 110.41251087 C-223.9287128 108.06357843 -220.87458426 106.19332964 -217.6015625 104.60546875 C-216.80073242 104.21149902 -215.99990234 103.8175293 -215.17480469 103.41162109 C-214.33336914 103.00766113 -213.49193359 102.60370117 -212.625 102.1875 C-210.83068447 101.308685 -209.03641418 100.42977763 -207.2421875 99.55078125 C-206.35499023 99.11975098 -205.46779297 98.6887207 -204.55371094 98.24462891 C-200.93838997 96.48259198 -197.34430847 94.67937333 -193.75 92.875 C-191.16699728 91.58267199 -188.58347303 90.2913875 -186 89 C-184.82727539 88.4136377 -183.65455078 87.82727539 -182.44628906 87.22314453 C-166.70898438 79.35449219 -150.97167969 71.48583984 -135.234375 63.6171875 C-134.42359497 63.21161621 -133.61281494 62.80604492 -132.77746582 62.38818359 C-130.74898453 61.37434413 -128.71983965 60.36183206 -126.69030762 59.35009766 C-117.59429897 54.81314603 -108.5202529 50.23355029 -99.45131683 45.64274597 C-90.18643448 40.95366184 -80.91393195 36.27978332 -71.63834381 31.61192322 C-65.425406 28.48474784 -59.21567448 25.35147881 -53.01269531 22.20458984 C-46.9715234 19.13981864 -40.92208381 16.0919156 -34.86729431 13.05413818 C-32.57119097 11.89871199 -30.2779052 10.73766849 -27.98756409 9.57086182 C-24.79392103 7.94501569 -21.59083118 6.33945868 -18.38476562 4.73828125 C-17.44748627 4.25526047 -16.51020691 3.77223969 -15.54452515 3.27458191 C-10.04787173 0.56060968 -6.14205099 -0.6961447 0 0 Z " fill="#FDCE55" transform="translate(421,421)"/>
<path d="M0 0 C8.25817754 -0.06957765 16.51623215 -0.12285044 24.77463055 -0.15543652 C28.60954343 -0.17107795 32.44425545 -0.19228805 36.27905273 -0.22631836 C39.98137696 -0.25896667 43.68350825 -0.27686447 47.38596535 -0.28463173 C48.79694467 -0.29016547 50.20791369 -0.30097164 51.61881065 -0.31719017 C53.59822627 -0.33903449 55.57783693 -0.340226 57.55737305 -0.34057617 C59.24614815 -0.35056892 59.24614815 -0.35056892 60.96903992 -0.36076355 C64.38174967 0.0454382 66.2418008 0.98878136 69 3 C70.83257805 5.41567106 71.04644417 6.54841181 70.73535156 9.57324219 C69.81074533 13.88193178 68.38145064 17.88615972 66.859375 22.015625 C66.54092621 22.89152283 66.22247742 23.76742065 65.89437866 24.66986084 C64.85174105 27.5319453 63.80113821 30.39102766 62.75 33.25 C62.02180291 35.24212546 61.29377721 37.23431357 60.56591797 39.2265625 C55.93097494 51.8840099 51.18102628 64.49409997 46.32632446 77.06872559 C42.12464023 87.95304536 38.1088327 98.88949013 34.24462891 109.8984375 C32.27154787 115.50984224 30.21433298 121.06167732 27.97631836 126.57275391 C26.26294237 130.83241483 24.66794053 135.13625102 23.0625 139.4375 C22.6819043 140.45481201 22.30130859 141.47212402 21.90917969 142.52026367 C15.4047388 159.9233768 8.94709104 177.34408694 2.49317932 194.76599121 C1.12116911 198.46925979 -0.25179486 202.17217437 -1.625 205.875 C-1.89299408 206.59790222 -2.16098816 207.32080444 -2.43710327 208.06561279 C-5.30382883 215.79534202 -8.18684532 223.51827529 -11.12109375 231.22265625 C-11.37141357 231.88019897 -11.6217334 232.5377417 -11.87963867 233.21520996 C-13.04860246 236.28359624 -14.22119106 239.35049102 -15.39892578 242.41552734 C-17.39717777 247.64285551 -19.31621984 252.87280355 -21.05859375 258.19140625 C-22.54349269 262.72313919 -24.20426779 267.13760964 -26.00830078 271.55078125 C-27.74210526 275.83279173 -29.32678825 280.17055421 -30.9375 284.5 C-31.72242047 286.58732826 -32.50759283 288.67456181 -33.29296875 290.76171875 C-35.03268885 295.39419111 -36.74706857 300.03492932 -38.44459534 304.68301392 C-39.58439949 307.79352077 -40.73855068 310.89859684 -41.89505005 314.00292969 C-42.46291785 315.53697343 -43.02471943 317.07327702 -43.58029175 318.61181641 C-44.36602765 320.7851172 -45.1727616 322.94953483 -45.984375 325.11328125 C-46.21437698 325.76537064 -46.44437897 326.41746002 -46.68135071 327.08930969 C-48.33083261 331.39825642 -49.8641781 333.04642522 -54 335 C-57.10688782 335.36076355 -57.10688782 335.36076355 -60.6262207 335.34057617 C-61.27068649 335.34101425 -61.91515228 335.34145233 -62.57914734 335.34190369 C-64.69500746 335.3398249 -66.81006072 335.31653869 -68.92578125 335.29296875 C-70.39836698 335.28736952 -71.87095831 335.28310096 -73.34355164 335.28010559 C-77.20866479 335.26868248 -81.07343668 335.23923756 -84.93841553 335.20599365 C-88.88663111 335.17523783 -92.83490213 335.16158851 -96.78320312 335.14648438 C-104.52229055 335.11436504 -112.26109735 335.06319987 -120 335 C-120 334.67 -120 334.34 -120 334 C-109.11 334 -98.22 334 -87 334 C-86.67 332.02 -86.34 330.04 -86 328 C-85.54650579 326.55443674 -85.04536822 325.12288923 -84.49609375 323.7109375 C-84.17632568 322.87594727 -83.85655762 322.04095703 -83.52709961 321.18066406 C-83.16753174 320.25479492 -82.80796387 319.32892578 -82.4375 318.375 C-77.98723676 306.70816849 -73.69544116 294.9880977 -69.4375 283.25 C-68.75133947 281.35993109 -68.06514121 279.46987588 -67.37890625 277.57983398 C-65.96954806 273.69744833 -64.56076752 269.81485363 -63.15234375 265.93212891 C-59.92651255 257.03999605 -56.69539144 248.14978647 -53.46340942 239.2598877 C-52.47249162 236.53376572 -51.48217487 233.80742601 -50.49194336 231.08105469 C-45.11353518 216.27882973 -39.67057659 201.50102228 -34.1953125 186.734375 C-26.341303 165.54825145 -18.56672868 144.33597544 -10.90219116 123.08053589 C-6.82042574 111.76306492 -2.71591622 100.45847157 1.54980469 89.20874023 C5.3800823 79.07046286 9.0553675 68.87576818 12.75 58.6875 C19.73682663 39.42141969 26.83975883 20.20246496 34 1 C22.78 1 11.56 1 0 1 C0 0.67 0 0.34 0 0 Z " fill="#F1DED4" transform="translate(565,381)"/>
<path d="M0 0 C2.475 0.495 2.475 0.495 5 1 C4.01 1.495 4.01 1.495 3 2 C3 21.47 3 40.94 3 61 C2.67 61 2.34 61 2 61 C1.98969254 60.28003342 1.97938507 59.56006683 1.96876526 58.81828308 C1.87080865 52.03499673 1.76829673 45.25179289 1.66066074 38.46865368 C1.60548424 34.9813316 1.55207274 31.49400105 1.50268555 28.0065918 C1.44583745 23.99779153 1.38132952 19.98914643 1.31640625 15.98046875 C1.29969376 14.72727341 1.28298126 13.47407806 1.26576233 12.1829071 C1.24581711 11.02193008 1.22587189 9.86095306 1.20532227 8.66479492 C1.18977798 7.64109299 1.1742337 6.61739105 1.15821838 5.56266785 C1.10284378 2.87992024 1.10284378 2.87992024 0 0 Z " fill="#256F85" transform="translate(424,423)"/>
<path d="M0 0 C0.66 0 1.32 0 2 0 C0.73485765 4.93405515 -1.54846539 8.54572141 -4.40234375 12.67578125 C-6.71828294 16.04493484 -8.85667741 19.51947172 -11 23 C-11.66 22.67 -12.32 22.34 -13 22 C-12 20 -12 20 -11 18 C-10.70867188 17.40058594 -10.41734375 16.80117188 -10.1171875 16.18359375 C-8.83113579 13.66994723 -7.43629039 11.24342149 -6 8.8125 C-5.484375 7.93207031 -4.96875 7.05164063 -4.4375 6.14453125 C-3 4 -3 4 -1 3 C-0.67 2.01 -0.34 1.02 0 0 Z " fill="#1B92BF" transform="translate(1008,807)"/>
<path d="M0 0 C0.66 0 1.32 0 2 0 C1.45339344 6.08878192 0.07141474 11.28645567 -2.0625 17 C-2.34416016 17.77472656 -2.62582031 18.54945313 -2.91601562 19.34765625 C-3.60320298 21.23450967 -4.30054013 23.11766151 -5 25 C-5.66 24.67 -6.32 24.34 -7 24 C-6.649375 23.071875 -6.29875 22.14375 -5.9375 21.1875 C-4.67617372 18.0197047 -4.67617372 18.0197047 -6 15 C-5.5625 12.8125 -5.5625 12.8125 -5 11 C-4.01 11.33 -3.02 11.66 -2 12 C-1.1558062 8.02022924 -0.55312735 4.02992782 0 0 Z " fill="#229DC5" transform="translate(1055,697)"/>
<path d="M0 0 C1.09961696 3.33253716 0.87808914 5.55641757 0.07421875 8.94921875 C-0.14556641 9.87927734 -0.36535156 10.80933594 -0.59179688 11.76757812 C-0.82962891 12.73115234 -1.06746094 13.69472656 -1.3125 14.6875 C-1.53873047 15.66267578 -1.76496094 16.63785156 -1.99804688 17.64257812 C-3.29496982 23.01340886 -3.29496982 23.01340886 -4 25 C-4.66 25.33 -5.32 25.66 -6 26 C-6.33 24.02 -6.66 22.04 -7 20 C-6.34 19.67 -5.68 19.34 -5 19 C-4.34176886 16.09500531 -4.34176886 16.09500531 -3.9375 12.6875 C-2.56606218 2.56606218 -2.56606218 2.56606218 0 0 Z " fill="#229AC3" transform="translate(1066,660)"/>
<path d="M0 0 C0.33 0 0.66 0 1 0 C1.11157151 9.07448253 0.94242818 17.96278689 0 27 C-2.57409438 23.13885843 -2.29601945 19.08888664 -2.25 14.625 C-2.26160156 13.51125 -2.26160156 13.51125 -2.2734375 12.375 C-2.25750437 7.865925 -1.6981287 4.24532175 0 0 Z " fill="#2099C3" transform="translate(1079,567)"/>
<path d="M0 0 C0.99 0.33 1.98 0.66 3 1 C1.35433477 6.68502535 -1.29032784 11.76681636 -4 17 C-5.4783226 14.04335481 -5.06032783 11.25770263 -5 8 C-3.68 8 -2.36 8 -1 8 C-1.020625 7.05125 -1.04125 6.1025 -1.0625 5.125 C-1 2 -1 2 0 0 Z " fill="#2698C3" transform="translate(1032,757)"/>
<path d="M0 0 C0.33 0.66 0.66 1.32 1 2 C-1.36664989 5.88806767 -2.90350401 8.08830187 -7 10 C-8.26804566 12.0335948 -8.26804566 12.0335948 -9 14 C-9 10.02785867 -7.56892582 8.89680688 -5.0625 5.875 C-4.33160156 4.98554688 -3.60070312 4.09609375 -2.84765625 3.1796875 C-1 1 -1 1 0 0 Z " fill="#2FAADA" transform="translate(121,198)"/>
<path d="M0 0 C0.66 0.33 1.32 0.66 2 1 C-1.38009389 4.38009389 -5.02451955 7.3496797 -9 10 C-9.99 9.67 -10.98 9.34 -12 9 C-8.04 6.03 -4.08 3.06 0 0 Z " fill="#38B0DF" transform="translate(209,112)"/>
<path d="M0 0 C0.66 0 1.32 0 2 0 C1.46884894 4.51478398 -0.36620292 7.34666857 -3 11 C-3.66 10.67 -4.32 10.34 -5 10 C-3.33333333 6.66666667 -1.66666667 3.33333333 0 0 Z " fill="#299DC6" transform="translate(1000,819)"/>
<path d="M0 0 C0.99 0.99 1.98 1.98 3 3 C2.02433888 4.16959987 1.044375 5.33561177 0.0625 6.5 C-0.48277344 7.1496875 -1.02804687 7.799375 -1.58984375 8.46875 C-2.05519531 8.9740625 -2.52054688 9.479375 -3 10 C-3.33 10 -3.66 10 -4 10 C-4 8.35 -4 6.7 -4 5 C-3.01 4.67 -2.02 4.34 -1 4 C-0.26676204 1.98491642 -0.26676204 1.98491642 0 0 Z " fill="#1B92BE" transform="translate(950,887)"/>
<path d="M0 0 C-2.22825644 2.22825644 -3.65761628 2.69239369 -6.625 3.625 C-7.44226563 3.88539063 -8.25953125 4.14578125 -9.1015625 4.4140625 C-9.72804688 4.60742188 -10.35453125 4.80078125 -11 5 C-10.625 3.0625 -10.625 3.0625 -10 1 C-6.78548731 -0.60725635 -3.56387464 -0.05748185 0 0 Z " fill="#1B7899" transform="translate(727,572)"/>
<path d="M0 0 C4.19162145 0.95264124 5.7207791 1.63260408 8.375 5.125 C8.91125 6.07375 9.4475 7.0225 10 8 C6.05205855 6.32971708 3.18203882 3.8204435 0 1 C0 0.67 0 0.34 0 0 Z " fill="#3EB0DE" transform="translate(199,959)"/>
<path d="M0 0 C1.98 0.66 3.96 1.32 6 2 C6 2.66 6 3.32 6 4 C4.35 4.33 2.7 4.66 1 5 C0.67 3.35 0.34 1.7 0 0 Z " fill="#1F7B98" transform="translate(739,530)"/>
<path d="M0 0 C2.31 0.66 4.62 1.32 7 2 C6.01 2.495 6.01 2.495 5 3 C3.86649466 5.01669827 3.86649466 5.01669827 3 7 C2.01 4.69 1.02 2.38 0 0 Z " fill="#127096" transform="translate(633,383)"/>
<path d="M0 0 C0.33 0 0.66 0 1 0 C1.33 2.31 1.66 4.62 2 7 C0.68 7.99 -0.64 8.98 -2 10 C-1.54177532 6.53058454 -1.10868317 3.32604951 0 0 Z " fill="#33A9D5" transform="translate(32,352)"/>
<path d="M0 0 C0.33 0.66 0.66 1.32 1 2 C0.06421005 4.35981813 -0.93347808 6.69631264 -2 9 C-2.66 8.34 -3.32 7.68 -4 7 C-3.34 7 -2.68 7 -2 7 C-2.33 5.35 -2.66 3.7 -3 2 C-2.01 1.34 -1.02 0.68 0 0 Z " fill="#1B94C1" transform="translate(1048,723)"/>
<path d="M0 0 C1.65 1.32 3.3 2.64 5 4 C3.35 4.66 1.7 5.32 0 6 C-0.38218767 4.34385343 -0.71395102 2.67542976 -1 1 C-0.67 0.67 -0.34 0.34 0 0 Z " fill="#1E7794" transform="translate(649,668)"/>
<path d="M0 0 C0.66 0.33 1.32 0.66 2 1 C1.34 2.32 0.68 3.64 0 5 C-1.65 5 -3.3 5 -5 5 C-5 4.34 -5 3.68 -5 3 C-2.625 1.3125 -2.625 1.3125 0 0 Z " fill="#2BA8DF" transform="translate(250,83)"/>
</svg>
